<svg width="340" height="260" viewBox="0 0 340 260" fill="none" xmlns="http://www.w3.org/2000/svg">
<g clip-path="url(#clip0_202_2)">
<path d="M339.982 176.01C339.982 180.016 339.854 183.992 339.598 187.937C338.325 207.827 333.779 227.346 326.157 245.651C324.972 248.473 323.728 251.256 322.423 254H17.5519C14.0111 246.604 10.9842 238.955 8.49382 231.112C7.01576 226.481 5.72413 221.767 4.61826 216.971C1.5378 203.551 -0.0121563 189.804 7.17885e-05 176.01C-0.0105526 78.803 76.1015 1.64644e-05 169.986 1.64644e-05C177.747 -0.00344761 185.5 0.53972 193.189 1.62571C194.966 1.87949 196.742 2.15897 198.518 2.46789C200.463 2.80876 202.398 3.17651 204.326 3.57127C228.306 8.71141 250.933 19.1451 270.665 34.1607C290.397 49.1768 306.768 68.4218 318.665 90.5829C321.246 95.3813 323.614 100.316 325.769 105.387C327.496 109.445 329.07 113.58 330.49 117.793C336.758 136.345 339.973 155.855 340 175.51C339.982 175.69 339.982 175.848 339.982 176.01Z" fill="#4A607A"/>
<path d="M339.993 176.2C339.993 180.197 339.865 184.163 339.61 188.098C338.337 207.94 333.796 227.411 326.183 245.671C325.001 248.487 323.758 251.263 322.454 254H17.9428C14.4062 246.622 11.3828 238.992 8.89536 231.168L105.561 169.39L196.392 178.196L318.69 91C321.268 95.7867 323.634 100.709 325.786 105.767C327.511 109.815 329.083 113.941 330.501 118.143C336.762 136.65 339.973 156.113 340 175.72C339.993 175.881 339.993 176.039 339.993 176.2Z" fill="#1A3554"/>
<path d="M95.8718 81C97.5095 81 98.8372 79.6574 98.8372 78C98.8372 76.3433 97.5095 75 95.8718 75C94.2348 75 92.907 76.3433 92.907 78C92.907 79.6574 94.2348 81 95.8718 81Z" fill="#2C3149"/>
<path d="M270.835 61H81.0256C72.3034 61 65.2326 68.3169 65.2326 77.3423V177.657C65.2326 186.683 72.3034 194 81.0256 194H270.835C279.557 194 286.628 186.683 286.628 177.657V77.3423C286.628 68.3169 279.557 61 270.835 61Z" fill="#4F6097"/>
<path d="M264.904 55H75.096C66.3731 55 59.3023 62.3169 59.3023 71.3423V171.657C59.3023 180.683 66.3731 188 75.096 188H264.904C273.627 188 280.698 180.683 280.698 171.657V71.3423C280.698 62.3169 273.627 55 264.904 55Z" fill="#303072"/>
<path d="M75.1163 81V164H264.884V81H75.1163ZM264.159 99.4419H239.522V81.7386H264.173L264.159 99.4419ZM178.076 100.18H212.638V119.773H178.09L178.076 100.18ZM177.365 119.773H142.423V100.18H177.38L177.365 119.773ZM213.349 100.18H238.796V119.773H213.363L213.349 100.18ZM213.349 99.4419V81.7386H238.796V99.4419H213.349ZM212.638 99.4419H178.09V81.7386H212.652L212.638 99.4419ZM177.365 99.4419H142.423V81.7386H177.38L177.365 99.4419ZM141.698 99.4419H109.134V81.7386H141.712L141.698 99.4419ZM141.698 100.18V119.773H109.134V100.18H141.698ZM108.423 119.773H75.827V100.18H108.423V119.773ZM108.423 120.512V143.89H75.827V120.512H108.423ZM109.134 120.512H141.712V143.89H109.134V120.512ZM142.423 120.512H177.38V143.89H142.423V120.512ZM178.09 120.512H212.652V143.89H178.09V120.512ZM213.363 120.512H238.81V143.89H213.363V120.512ZM239.522 120.512H264.173V143.89H239.522V120.512ZM239.522 119.773V100.18H264.173V119.773H239.522ZM108.423 81.7456V99.4489H75.827V81.7386L108.423 81.7456ZM75.827 163.262V144.628H108.423V162.719H109.134V144.628H141.712V162.719H142.423V144.628H177.38V162.719H178.09V144.628H212.652V162.719H213.363V144.628H238.81V162.719H239.522V144.628H264.173V163.262H75.827Z" fill="white"/>
<path d="M75.177 162C75.0555 161.999 74.9353 161.975 74.8218 161.93C74.5575 161.829 74.3432 161.624 74.225 161.359C74.1075 161.094 74.0961 160.792 74.1936 160.519C77.5444 151.762 81.8551 143.43 87.0418 135.688C91.9394 128.477 97.1854 122.747 102.64 118.667C109.522 113.517 116.762 110.969 124.12 111.123C124.997 111.123 138.271 111.156 152.063 128.997C158.04 136.728 167.115 141.076 176.939 140.951C190.125 140.772 202.934 133.088 213.017 119.323C232.69 92.424 244.271 83.597 264.629 80.0152C264.908 79.9669 265.193 80.0346 265.424 80.2037C265.654 80.3729 265.81 80.6298 265.857 80.9171C265.904 81.205 265.838 81.5006 265.675 81.7381C265.511 81.9763 265.263 82.1372 264.984 82.1856C245.03 85.7045 234.22 93.9708 214.692 120.643C209.308 128 203.146 133.693 196.378 137.568C190.149 141.131 183.431 143.066 176.946 143.151C166.448 143.294 156.766 138.635 150.377 130.368C137.117 113.22 124.266 113.326 124.113 113.323H124.063C108.351 112.996 96.2094 125.973 88.7736 136.915C83.6844 144.514 79.4511 152.688 76.1564 161.278C76.083 161.486 75.9494 161.666 75.7752 161.796C75.6003 161.925 75.3913 161.996 75.177 162Z" fill="#EC685A"/>
<path d="M76.1767 164C75.994 163.999 75.8133 163.951 75.654 163.858C75.4946 163.765 75.362 163.631 75.2673 163.47C75.1733 163.309 75.1213 163.125 75.1166 162.938C75.1119 162.75 75.1553 162.563 75.2413 162.398C75.4146 162.064 79.5902 154.118 87.7032 146.114C95.1215 138.797 107.317 130.146 123.501 130.146H124.167C124.965 130.146 138.164 130.146 151.959 143.139C158.657 149.453 168.897 152.585 180.047 151.717C192.155 150.779 203.872 145.232 213.049 136.094C233.443 115.792 244.983 108.38 264.488 103.05C264.624 103.006 264.769 102.991 264.912 103.005C265.055 103.019 265.194 103.063 265.32 103.134C265.446 103.204 265.556 103.301 265.645 103.417C265.734 103.532 265.798 103.666 265.836 103.808C265.873 103.95 265.882 104.099 265.861 104.245C265.84 104.39 265.792 104.53 265.717 104.656C265.642 104.782 265.544 104.891 265.427 104.976C265.31 105.063 265.177 105.123 265.037 105.154C245.717 110.437 234.857 117.423 214.53 137.656C205 147.142 192.811 152.916 180.211 153.882C168.471 154.786 157.651 151.459 150.519 144.737C137.249 132.232 124.323 132.308 124.189 132.319H124.153C108.373 132.083 96.4609 140.512 89.2346 147.626C84.493 152.278 80.4162 157.592 77.1234 163.411C77.0334 163.589 76.8974 163.738 76.7307 163.842C76.564 163.946 76.372 164.001 76.1767 164Z" fill="#00132C"/>
<path d="M53.3721 243V251C50.2997 250.563 47.304 249.665 44.4767 248.333V243H53.3721Z" fill="#B8A375"/>
<path d="M77.093 243V248.712C74.5455 249.971 71.5065 250.657 68.1977 251V243H77.093Z" fill="#B8A375"/>
<path d="M92.907 226.111V230.391C92.9049 232.165 92.2402 233.871 91.0511 235.152C89.862 236.433 88.2406 237.19 86.5246 237.265C82.9939 244.905 74.1441 250.455 63.6027 251C49.8144 250.336 38.8845 241.119 38.8845 229.841C38.8872 228.269 39.102 226.704 39.5243 225.194C36.1442 224.21 34.4491 222.105 33.6046 220.104C34.9869 220.61 36.428 220.922 37.89 221.033C37.9907 220.85 38.0947 220.661 38.2021 220.505C39.2081 220.771 40.2343 220.947 41.2694 221.033C45.2203 214.117 53.6356 209.202 63.5561 208.712C65.464 208.811 67.3604 209.082 69.2237 209.521C69.3629 209.323 69.5203 209.139 69.694 208.972C71.7052 206.878 77.0465 205 77.0465 205V212.554C82.5777 215.709 86.5246 220.528 87.7636 226.111H92.907Z" fill="#DDD0A4"/>
<path d="M77.093 205.363C77.093 205.363 72.2902 207.484 71.321 210C71.321 210 68.5258 208.793 67.3421 208.691C66.1576 208.589 73.1833 203.644 77.093 205.363Z" fill="#B8A375"/>
<path d="M63.2558 250.951C62.687 250.985 62.1108 251 61.528 251C47.2195 251 35.6245 241.398 35.6245 229.559C35.6245 227.959 35.8411 226.369 36.2678 224.835C28.9863 222.657 29.6681 215 29.6681 215C30.0423 217.486 31.788 218.894 33.777 219.687C34.6071 221.711 36.2744 223.84 39.5992 224.835C39.1778 226.369 38.9612 227.96 38.9559 229.559C38.9559 240.956 49.707 250.279 63.2558 250.951Z" fill="#B8A375"/>
<path d="M63.2558 209.043C53.5879 209.518 45.3791 214.288 41.5358 221C40.5271 220.917 39.5269 220.746 38.5465 220.488C42.7467 213.683 51.4704 209 61.5761 209C62.122 209 62.6856 209.014 63.2558 209.043Z" fill="#B8A375"/>
<path d="M75.1163 227C76.7542 227 78.0814 225.657 78.0814 224C78.0814 222.343 76.7542 221 75.1163 221C73.479 221 72.1512 222.343 72.1512 224C72.1512 225.657 73.479 227 75.1163 227Z" fill="#2C3149"/>
<path d="M70.6614 216.998H52.8851C52.8218 217.004 52.7571 216.995 52.6964 216.974C52.6364 216.951 52.5802 216.915 52.5332 216.869C52.4862 216.822 52.4484 216.765 52.4229 216.701C52.3968 216.638 52.3837 216.569 52.3837 216.5C52.3837 216.43 52.3968 216.362 52.4229 216.299C52.4484 216.235 52.4862 216.178 52.5332 216.132C52.5802 216.085 52.6364 216.049 52.6964 216.027C52.7571 216.004 52.8218 215.996 52.8851 216.002H70.6614C70.7254 215.996 70.7894 216.004 70.8501 216.027C70.9108 216.049 70.9663 216.085 71.0133 216.132C71.0603 216.178 71.0982 216.235 71.1243 216.299C71.1497 216.362 71.1628 216.43 71.1628 216.5C71.1628 216.569 71.1497 216.638 71.1243 216.701C71.0982 216.765 71.0603 216.822 71.0133 216.869C70.9663 216.915 70.9108 216.951 70.8501 216.974C70.7894 216.995 70.7254 217.004 70.6614 216.998Z" fill="#B8A375"/>
<path d="M61.2791 214C67.2837 214 72.1512 208.851 72.1512 202.5C72.1512 196.149 67.2837 191 61.2791 191C55.2744 191 50.407 196.149 50.407 202.5C50.407 208.851 55.2744 214 61.2791 214Z" fill="#EFB2A0"/>
<path d="M53.3721 250.585V253H44.4767V248C47.3047 249.293 50.3004 250.163 53.3721 250.585Z" fill="#DDD0A4"/>
<path d="M77.093 249V253H68.1977V250.979C71.5065 250.674 74.5305 250.084 77.093 249Z" fill="#DDD0A4"/>
<path d="M61.2791 209C64.5541 209 67.2093 206.09 67.2093 202.5C67.2093 198.911 64.5541 196 61.2791 196C58.0041 196 55.3488 198.911 55.3488 202.5C55.3488 206.09 58.0041 209 61.2791 209Z" fill="#FDE5CF"/>
<path d="M232.711 176.624C232.679 177.162 232.647 177.66 232.622 178.113C232.601 178.46 232.506 178.799 232.345 179.105C232.183 179.411 231.959 179.678 231.687 179.886C231.415 180.095 231.102 180.24 230.77 180.313C230.437 180.386 230.094 180.384 229.761 180.308L229.304 183.666L229.007 185.883C228.506 189.547 226.728 192.903 224.001 195.334C221.275 197.764 217.783 199.107 214.166 199.114C213.598 199.114 213.029 199.081 212.464 199.016C211.88 198.947 211.301 198.841 210.73 198.701L207.201 224.703L206.843 227.333L202.4 260H139.513L134.053 227.808L133.47 224.385L129.004 198.068C128.155 198.329 127.284 198.512 126.402 198.613C119.716 199.389 110.885 192.296 107.395 185.158C107.114 185.22 106.823 185.218 106.542 185.153C106.263 185.087 106 184.96 105.772 184.78C105.545 184.6 105.358 184.371 105.226 184.11C105.094 183.849 105.019 183.562 105.007 183.267L103.934 156.867L103.891 156.388C102.683 144.912 111.428 135.299 121.053 131.582L123.059 130.832C124.203 130.298 125.34 129.822 126.452 129.413L143.914 123C148.361 129.219 158.14 133.52 169.481 133.52C172.892 133.537 176.292 133.138 179.61 132.332C180.186 132.193 180.747 132.043 181.298 131.874C187.226 130.115 192.024 127.068 194.884 123.289L211.567 129.406C213 129.942 214.405 130.553 215.779 131.235L217.795 131.992C226.845 135.485 233.526 145.036 233.133 154.833C233.473 161.666 233.033 171.177 232.711 176.624Z" fill="#DDD0A4"/>
<path d="M194.709 123.813C190.218 129.846 180.669 134 169.6 134C158.378 134 148.702 129.711 144.302 123.53L156.239 119.12V97H182.438V119.284L194.709 123.813Z" fill="#F7AD83"/>
<path d="M182.849 99V106.012C179.931 109.308 175.533 113 170.486 113C164.124 113 158.792 108.356 156.163 105.557V99.4283L165.478 99H182.849Z" fill="#EC685A"/>
<path d="M189.25 71.4143C189.321 71.9436 189.389 72.4693 189.446 73.0027V73.0429C189.815 76.3477 189.866 79.6824 189.6 82.9976C189.6 82.9976 189.6 83.0198 189.6 83.0309C188.967 90.7122 186.536 97.6295 182.334 102.222C179.622 105.253 175.973 107.223 172.008 107.797C160.923 109.437 152.587 100.954 148.272 89.0948C147.148 86.0039 146.31 82.8113 145.768 79.5591C145.672 79.0042 145.586 78.4376 145.507 77.8751C143.108 60.6948 142.264 48.1702 163.24 45.0696C166.816 44.5404 170.081 47.2177 173.645 46.6919C181.809 45.4853 186.933 58.4588 188.95 69.6417C188.95 69.6895 188.967 69.7373 188.978 69.7817C189.08 70.3206 189.171 70.865 189.25 71.4143Z" fill="#F7AD83"/>
<path d="M184.075 69.997L171.529 67.8703C171.403 67.8495 171.286 67.7916 171.192 67.7032C171.099 67.6154 171.034 67.5009 171.005 67.3754C170.976 67.2499 170.985 67.1191 171.031 66.9988C171.076 66.8785 171.157 66.7745 171.261 66.7003C173.423 65.1947 178.478 62.9575 184.646 68.8439C184.739 68.9473 184.799 69.0761 184.819 69.214C184.838 69.3518 184.816 69.4923 184.754 69.6172C184.692 69.742 184.594 69.8448 184.473 69.9124C184.352 69.9807 184.213 70.01 184.075 69.997Z" fill="#FDE5CF"/>
<path d="M159.622 81C160.441 81 161.105 80.1046 161.105 79C161.105 77.8955 160.441 77 159.622 77C158.803 77 158.14 77.8955 158.14 79C158.14 80.1046 158.803 81 159.622 81Z" fill="#1A1A1A"/>
<path d="M178.895 78C179.987 78 180.872 77.1047 180.872 75.9996C180.872 74.8953 179.987 74 178.895 74C177.804 74 176.919 74.8953 176.919 75.9996C176.919 77.1047 177.804 78 178.895 78Z" fill="#1A1A1A"/>
<path d="M168.312 93.9996C167.651 94.0053 166.99 93.9476 166.335 93.8274C166.291 93.8176 166.247 93.7965 166.209 93.7656C166.17 93.7348 166.136 93.695 166.11 93.6478C166.084 93.6007 166.065 93.5479 166.055 93.491C166.045 93.435 166.044 93.3773 166.052 93.3204C166.06 93.2644 166.076 93.21 166.101 93.1612C166.126 93.1125 166.157 93.071 166.195 93.0377C166.232 93.0044 166.275 92.9817 166.32 92.9687C166.365 92.9565 166.411 92.9549 166.456 92.9646C166.525 92.9646 173.54 94.4529 176.274 88.2209C176.318 88.1218 176.391 88.0487 176.478 88.017C176.566 87.9853 176.659 87.9983 176.739 88.0527C176.778 88.0795 176.814 88.1161 176.842 88.1608C176.871 88.2047 176.892 88.255 176.904 88.3103C176.917 88.3647 176.921 88.4216 176.917 88.4784C176.912 88.5345 176.898 88.5889 176.876 88.6393C174.862 93.2538 170.764 93.9996 168.312 93.9996Z" fill="#1A1A1A"/>
<path d="M170.187 96C170.145 95.999 170.104 95.9793 170.071 95.9417C170.038 95.9052 170.015 95.8539 170.005 95.7956C169.999 95.762 169.998 95.7275 170.003 95.6929C170.007 95.6584 170.015 95.6258 170.029 95.5971C170.042 95.5675 170.059 95.5428 170.079 95.5221C170.099 95.5023 170.122 95.4885 170.146 95.4816L174.713 94.0083C174.737 93.9994 174.762 93.9975 174.786 94.0034C174.81 94.0083 174.834 94.0202 174.854 94.0379C174.875 94.0567 174.894 94.0804 174.908 94.108C174.922 94.1367 174.932 94.1683 174.937 94.2019C174.948 94.269 174.94 94.3401 174.914 94.3993C174.889 94.4586 174.847 94.5001 174.799 94.5169L170.229 95.9951L170.187 96Z" fill="#1A1A1A"/>
<path d="M170.007 85.9995C169.599 86.0096 169.197 85.8782 168.856 85.6215C168.665 85.4671 168.505 85.2693 168.385 85.0397C168.266 84.8108 168.191 84.5554 168.165 84.2913L167.038 75.4105C167.026 75.3157 167.048 75.2202 167.099 75.1437C167.149 75.0678 167.225 75.0177 167.308 75.0042C167.349 74.9967 167.392 74.9994 167.432 75.0109C167.473 75.0225 167.511 75.0428 167.544 75.0712C167.578 75.0997 167.607 75.1356 167.628 75.1762C167.65 75.2175 167.663 75.2629 167.669 75.3096L168.792 84.187C168.807 84.3536 168.852 84.5155 168.925 84.6611C168.999 84.8067 169.098 84.9334 169.218 85.0323C169.407 85.1589 169.617 85.2416 169.835 85.2741C170.053 85.3066 170.275 85.2896 170.486 85.2226C170.837 85.1637 171.16 84.9679 171.397 84.6692C171.443 84.592 171.513 84.5385 171.593 84.5196C171.673 84.4999 171.756 84.5162 171.826 84.5649C171.895 84.6137 171.946 84.6909 171.966 84.781C171.987 84.8704 171.976 84.9659 171.937 85.0465C171.61 85.5179 171.139 85.8315 170.617 85.9236C170.417 85.9737 170.213 85.9995 170.007 85.9995Z" fill="#1A1A1A"/>
<path d="M150.037 74.9933L162.58 71.7003C162.706 71.6681 162.821 71.5968 162.909 71.4947C162.997 71.3933 163.054 71.2653 163.074 71.1289C163.094 70.9919 163.074 70.852 163.018 70.7269C162.963 70.6017 162.873 70.4975 162.761 70.4269C160.462 68.9863 155.183 66.9968 149.389 73.8051C149.305 73.9219 149.255 74.0625 149.246 74.2093C149.237 74.3569 149.269 74.503 149.339 74.6303C149.408 74.7576 149.512 74.8604 149.636 74.9247C149.761 74.9897 149.9 75.0128 150.037 74.9933Z" fill="#FDE5CF"/>
<path d="M148.256 88.8012C147.971 89.1151 147.653 89.384 147.311 89.6015C145.475 90.8099 142.005 89.1825 140.888 85.9038C139.773 82.625 140.444 79.2035 142.382 78.2647C143.424 77.7609 144.791 77.9914 146.007 78.8265C146.493 82.2285 147.245 85.5681 148.256 88.8012Z" fill="#EC685A"/>
<path d="M144.2 87C142.69 85.083 145.146 82.8951 145.76 82.3989C145.592 82.1447 145.366 81.9242 145.097 81.7514C144.829 81.5786 144.523 81.4575 144.2 81.3964C142.906 81.1893 141.601 82.1098 141.589 82.1098L141.337 81.8314C141.397 81.789 142.794 80.8033 144.267 81.0353C144.674 81.1133 145.057 81.2693 145.39 81.4932C145.722 81.7171 145.996 82.0028 146.191 82.331L146.279 82.4634L146.144 82.5596C146.115 82.5845 143.03 84.8907 144.527 86.7896L144.2 87Z" fill="#1A1A1A"/>
<path d="M196.646 77.5072C196.332 80.8561 193.21 83.4501 191.047 82.9345C190.653 82.8442 190.269 82.7028 189.907 82.5133C189.909 82.4857 189.909 82.4574 189.907 82.4292C190.02 81.0277 190.071 79.6007 190.057 78.1586C190.057 77.7926 190.057 77.4265 190.057 77.0612C190.023 75.7031 189.941 74.3348 189.805 72.9623C189.805 72.8375 189.781 72.7134 189.767 72.5962C189.918 72.4328 190.077 72.2791 190.245 72.135C190.927 71.5153 191.765 71.1251 192.654 71.0155C192.844 70.9948 193.036 70.9948 193.227 71.0155C195.428 71.2533 196.957 74.159 196.646 77.5072Z" fill="#EC685A"/>
<path d="M193.493 79.9975C193.475 80.0008 193.457 80.0008 193.439 79.9975C193.397 79.9822 193.363 79.9504 193.343 79.9092C193.323 79.8674 193.32 79.8196 193.334 79.7758C194.044 77.6051 190.925 76.1845 190.891 76.1706L190.756 76.1109L190.796 75.9661C190.866 75.6064 191.012 75.2665 191.222 74.9717C191.433 74.677 191.702 74.434 192.013 74.2608C193.152 73.672 194.544 74.2608 194.605 74.2854C194.626 74.294 194.644 74.3073 194.66 74.3239C194.676 74.3405 194.688 74.3604 194.697 74.3816C194.705 74.4035 194.71 74.4267 194.709 74.45C194.709 74.4732 194.705 74.4964 194.697 74.5177C194.688 74.5396 194.675 74.5588 194.659 74.5754C194.643 74.5914 194.624 74.6046 194.604 74.6133C194.583 74.6226 194.56 74.6266 194.538 74.6266C194.516 74.6266 194.494 74.6219 194.473 74.6133C194.473 74.6133 193.159 74.0597 192.161 74.5774C191.913 74.7148 191.695 74.9047 191.52 75.1344C191.346 75.3641 191.219 75.6296 191.148 75.913C191.78 76.2337 194.358 77.6967 193.639 79.8886C193.627 79.9192 193.607 79.9457 193.581 79.965C193.555 79.9849 193.525 79.9955 193.493 79.9975Z" fill="#1A1A1A"/>
<path d="M155.669 91C157.579 91 159.128 89.4325 159.128 87.5C159.128 85.5675 157.579 84 155.669 84C153.758 84 152.209 85.5675 152.209 87.5C152.209 89.4325 153.758 91 155.669 91Z" fill="#EC685A"/>
<path d="M183.343 87C185.254 87 186.802 85.4331 186.802 83.4997C186.802 81.567 185.254 80 183.343 80C181.433 80 179.884 81.567 179.884 83.4997C179.884 85.4331 181.433 87 183.343 87Z" fill="#EC685A"/>
<path d="M189.656 73.8791C189.656 73.8791 185.237 67.6176 184.984 61.7688C184.73 55.9201 182.306 52.9625 179.914 52.3512C178.763 52.0564 176.943 52.8848 174.93 54.1704C171.895 56.104 168.42 59.0651 166.136 60.7372C161.974 63.7906 152.261 65.4037 147.27 61.3748C144.171 58.8778 145.841 78.685 146.723 82C146.723 82 144.399 75.8016 140.738 73.4774C137.078 71.1532 134.6 67.3706 137.343 62.0929C140.085 56.8151 135.526 53.0547 135.408 48.2002C135.29 43.3457 142.233 38.3143 151.854 39.4674C161.474 40.6205 168.996 34.7863 171.777 32.7972C174.558 30.8081 180.182 32.2672 181.026 40.3069C181.869 48.3473 186.324 41.707 189.438 44.7895C191.808 47.1429 189.08 48.2814 191.272 52.9736C193.464 57.6657 194.714 53.1796 195.651 58.9104C196.359 63.257 188.744 63.1904 189.656 73.8791Z" fill="#FDE5CF"/>
<path d="M158.125 90C156.225 89.9943 154.391 89.2537 152.957 87.9143C151.522 86.5756 150.584 84.7261 150.312 82.705C150.084 80.9896 150.349 79.2394 151.072 77.69C151.794 76.1407 152.94 74.8658 154.356 74.0365C155.772 73.2072 157.39 72.8624 158.993 73.0497C160.596 73.237 162.107 73.9464 163.325 75.0829C164.542 76.2194 165.407 77.7291 165.804 79.409C166.2 81.0896 166.109 82.8596 165.543 84.4828C164.978 86.106 163.964 87.5042 162.638 88.4903C161.312 89.4764 159.737 90.0035 158.125 90ZM158.146 73.3689C157.785 73.3711 157.424 73.3987 157.067 73.4519C155.128 73.752 153.374 74.8481 152.173 76.511C150.971 78.1732 150.417 80.2724 150.627 82.3652C150.836 84.458 151.793 86.3819 153.295 87.732C154.798 89.082 156.729 89.7531 158.682 89.6027C160.635 89.453 162.458 88.4939 163.767 86.9282C165.076 85.3625 165.768 83.3115 165.699 81.2081C165.63 79.1039 164.803 77.1112 163.394 75.649C161.986 74.1869 160.104 73.3697 158.146 73.3689Z" fill="#1A1A1A"/>
<path d="M180.372 87C178.197 86.9986 176.106 86.1431 174.541 84.6135C172.976 83.0839 172.059 80.9993 171.982 78.7993C171.906 76.5992 172.676 74.4543 174.13 72.817C175.585 71.1804 177.611 70.1775 179.781 70.0216C181.952 69.8649 184.097 70.5666 185.767 71.9792C187.436 73.3912 188.499 75.4034 188.731 77.5929C188.963 79.7816 188.347 81.9761 187.012 83.7147C185.678 85.4534 183.728 86.6002 181.574 86.9135C181.176 86.9716 180.774 87.0007 180.372 87ZM180.395 70.3837C179.291 70.3802 178.199 70.6063 177.187 71.0493C176.174 71.4916 175.261 72.1408 174.508 72.956C173.754 73.7711 173.174 74.7343 172.805 75.7862C172.436 76.838 172.285 77.9558 172.362 79.0693C172.439 80.1835 172.742 81.2687 173.252 82.2589C173.762 83.2483 174.469 84.1209 175.327 84.8226C176.185 85.5236 177.178 86.0382 178.242 86.3337C179.305 86.6293 180.418 86.7002 181.51 86.5407C183.517 86.2487 185.34 85.1997 186.613 83.6035C187.886 82.008 188.515 79.9836 188.374 77.9381C188.232 75.8918 187.331 73.9759 185.851 72.5746C184.372 71.1733 182.422 70.3908 180.395 70.3837Z" fill="#1A1A1A"/>
<path d="M165.249 80.9989C165.213 80.9998 165.177 80.9874 165.146 80.9644C165.116 80.9405 165.092 80.9069 165.076 80.8661C165.061 80.8263 165.055 80.7811 165.06 80.7368C165.065 80.6926 165.08 80.6518 165.104 80.6182C165.134 80.5659 168.388 75.8188 172.875 79.2359C172.918 79.2687 172.949 79.3218 172.96 79.3829C172.972 79.4431 172.963 79.5069 172.936 79.56C172.909 79.6131 172.867 79.6512 172.817 79.6654C172.768 79.6796 172.716 79.6689 172.673 79.6353C168.472 76.4298 165.417 80.8714 165.417 80.9139C165.397 80.944 165.37 80.9671 165.342 80.9821C165.312 80.9972 165.28 81.0025 165.249 80.9989Z" fill="#1A1A1A"/>
<path d="M145.001 52.5824C146.147 52.8647 147.314 53.04 148.488 53.1057C149.64 53.1791 150.796 53.1406 151.941 52.9904C153.032 52.8472 154.102 52.5622 155.126 52.1409C156.075 51.7434 156.96 51.1928 157.749 50.5095C158.121 50.1686 158.466 49.7969 158.779 49.3966C158.938 49.2052 159.087 49.0047 159.225 48.7958L159.432 48.4842L159.737 48.0615C160.15 47.4705 160.591 46.9032 161.062 46.3631C161.308 46.0885 161.529 45.8028 161.802 45.5359L162.631 44.7381C163.927 43.5511 165.464 42.6959 167.124 42.2383C167.362 42.1719 167.605 42.1237 167.85 42.0937C168.103 42.0609 168.349 42.0161 168.613 42.005C168.876 41.9938 169.139 42.005 169.403 42.005C169.674 42.0175 169.945 42.0448 170.214 42.0867C170.774 42.1678 171.325 42.3145 171.854 42.5241C172.135 42.6317 172.409 42.7553 172.676 42.895C172.82 42.9803 172.964 43.0655 173.104 43.1549L173.35 43.3254L173.473 43.4183C173.547 43.477 173.621 43.5441 173.694 43.6112C174.065 43.9668 174.365 44.3957 174.578 44.8736C174.792 45.3522 174.914 45.8699 174.938 46.3973C174.961 46.9255 174.887 47.453 174.717 47.9504C174.548 48.4479 174.287 48.9055 173.951 49.2967C173.614 49.6879 173.208 50.0051 172.755 50.2301C172.302 50.4558 171.812 50.5843 171.312 50.6095C170.812 50.6346 170.313 50.5557 169.842 50.3768C169.37 50.198 168.937 49.9227 168.567 49.5671C168.609 49.609 168.654 49.6474 168.701 49.6824L168.732 49.7005L168.792 49.7306H168.837C168.837 49.7306 168.862 49.697 168.837 49.6789C168.818 49.6244 168.785 49.5769 168.742 49.5412C168.711 49.5231 168.69 49.486 168.651 49.4672C168.609 49.4525 168.569 49.4329 168.532 49.4078C168.484 49.4036 168.436 49.4029 168.387 49.4043C168.332 49.3805 168.272 49.3694 168.212 49.3708C167.465 49.3715 166.731 49.5741 166.081 49.9604L165.452 50.3314C165.241 50.4537 165.037 50.6318 164.823 50.7764C164.386 51.0936 163.966 51.4366 163.566 51.8034L163.246 52.0822L162.828 52.4713C162.553 52.7354 162.263 52.9834 161.961 53.2133C160.212 54.5847 158.17 55.4769 156.015 55.8094C154.676 56.0204 153.317 56.0561 151.969 55.917C150.678 55.7857 149.401 55.5293 148.155 55.1492C146.928 54.7831 145.734 54.3046 144.587 53.7177C144.471 53.6472 144.383 53.5361 144.337 53.4033C144.291 53.2713 144.291 53.126 144.336 52.9939C144.381 52.8612 144.469 52.7494 144.584 52.6788C144.7 52.6076 144.834 52.5817 144.966 52.6048L145.001 52.5824Z" fill="#FCF4ED"/>
<path d="M174.942 54C170.761 57.8773 164.183 65.6756 157.465 65.9811C149.449 66.3497 147.267 61.2089 147.267 61.2089C152.275 65.2403 161.979 63.6262 166.143 60.5709C168.428 58.8978 171.905 55.9348 174.942 54Z" fill="#EC685A"/>
<path d="M197.674 201L153.198 194L197.164 200.901L197.674 201Z" fill="#406468"/>
<g opacity="0.7">
<path opacity="0.7" d="M205.001 165.781L204.397 178.021L228.844 184.326L229.299 180.951C229.628 181.028 229.97 181.03 230.3 180.957C230.631 180.883 230.941 180.737 231.212 180.527C231.482 180.318 231.705 180.05 231.865 179.742C232.026 179.434 232.12 179.094 232.141 178.745C232.165 178.29 232.197 177.789 232.23 177.249C207.84 175.48 205.001 165.781 205.001 165.781Z" fill="#B8A375"/>
<path opacity="0.7" d="M206.415 225.534C205.971 225.493 205.488 225.446 204.973 225.387C204.667 225.353 204.348 225.313 204.01 225.269C201.857 225.004 199.136 224.57 195.751 223.894L195.008 223.743L194.142 223.555C192.934 223.298 191.655 223.015 190.284 222.699L189.85 222.596C189.186 222.442 188.501 222.276 187.801 222.107L187.236 221.967C186.481 221.778 185.702 221.581 184.898 221.375L184.298 221.221C183.279 220.956 182.231 220.677 181.147 220.383L180.49 220.202L179.158 219.835L177.851 219.467C176.117 218.97 174.299 218.445 172.416 217.875L171.172 217.507C168.849 216.799 166.399 216.029 163.823 215.198L162.959 214.915C158.061 213.323 152.707 211.499 146.86 209.4L145.862 209.032C144.232 212.577 142.69 215.72 141.283 218.452C139.656 221.611 136.854 223.909 133.642 225.251L134.214 228.703C136.903 227.891 144.324 224.614 147.106 212.804C147.106 212.804 192.984 227.663 206.529 228.222L206.884 225.578H206.795L206.415 225.534Z" fill="#B8A375"/>
<path opacity="0.7" d="M131.756 190.243L137.724 178.046C131.98 172.395 131.468 167.509 131.468 167.509C131.468 167.509 128.704 176.208 118.608 180.525C121.169 179.89 123.791 179.563 126.424 179.551C126.963 179.551 127.514 179.551 128.075 179.551C128.289 179.551 128.502 179.551 128.715 179.576C129.181 179.594 129.656 179.628 130.136 179.668L130.676 179.712L131.351 179.779L132.04 179.859L132.012 180.841L131.756 190.243Z" fill="#B8A375"/>
<path opacity="0.7" d="M197.158 200.461L199.698 200.829C200.115 200.891 200.54 200.86 200.944 200.737C201.517 200.562 202.024 200.21 202.398 199.728C202.773 199.247 202.995 198.658 203.037 198.042L203.357 193.335C198.028 194.365 187.9 194.508 187.9 194.508C173.336 193.508 162.53 191.081 154.509 188.07C154.437 188.25 154.374 188.438 154.302 188.614C154.175 188.982 154.043 189.316 153.911 189.662C153.388 191.047 152.868 192.395 152.352 193.707L152.85 193.784L197.158 200.461Z" fill="#B8A375"/>
</g>
<path d="M185.086 137L185.142 137.039C185.12 137.123 185.075 137.203 185.012 137.271L184.128 138.212L185.814 139.327L185.582 139.576C185.064 140.127 183.998 140.143 183.201 139.614L182.849 139.381L185.086 137Z" fill="#EFCEC5"/>
<path d="M151.532 111L181.86 136.673L180.883 138L150.233 112.053C150.74 111.823 151.187 111.461 151.532 111Z" fill="#EC685A"/>
<path d="M147.626 108L151.221 111.075C150.923 111.481 150.537 111.798 150.097 112L149.586 111.563L147.267 108.444L147.47 108.194L147.626 108Z" fill="#FDEFE7"/>
<path d="M145.291 106L147.267 108.354L147.108 108.647L146.902 109L145.291 106Z" fill="#2C3149"/>
<path d="M151.881 110L182.849 134.815L181.931 136L151.221 111.381L151.243 111.359C151.551 110.959 151.769 110.495 151.881 110Z" fill="#9A3836"/>
<path d="M151.532 109.028L152.209 109.572C152.098 110.084 151.876 110.564 151.561 110.978L151.54 111L147.267 107.551L147.377 107.41C147.482 107.276 147.584 107.138 147.679 107L151.532 109.028Z" fill="#F7AD83"/>
<path d="M147.267 107.465C147.202 107.599 147.132 107.733 147.06 107.863L146.984 108L145.398 106.191L145.291 106L147.267 107.465Z" fill="#030205"/>
<path d="M184.786 136.93L184.826 136.963C184.81 137.035 184.778 137.102 184.734 137.161L183.422 138.809C183.37 138.876 183.301 138.927 183.222 138.958C183.102 139.001 182.972 139.011 182.846 138.988C182.719 138.965 182.602 138.909 182.504 138.825L181.169 137.767C181.026 137.673 180.924 137.525 180.887 137.356C180.85 137.187 180.881 137.011 180.972 136.864L181.648 136L184.022 137.883L184.786 136.93Z" fill="#2C3149"/>
<path d="M184.793 137L185.068 137.17C185.823 137.633 186.042 138.401 185.553 138.874L185.427 139L183.837 138.022L184.671 137.198C184.728 137.139 184.77 137.072 184.793 137Z" fill="#E2BEB5"/>
<path d="M182.444 135.199L181.86 136.014L184.074 137.936L184.147 138L184.731 137.185C184.772 137.126 184.801 137.057 184.817 136.984C184.837 136.847 184.823 136.708 184.774 136.58C184.726 136.453 184.647 136.343 184.545 136.263L183.297 135.183C183.181 135.062 183.027 134.997 182.868 135C182.709 135.003 182.556 135.075 182.444 135.199Z" fill="#191E30"/>
<path d="M229.302 181.162C229.302 181.162 229.235 205.77 221.63 218.507C219.268 222.46 216.192 225.263 212.164 225.845C211.753 225.905 211.34 225.941 210.925 225.952C210.345 226 209.762 226.012 209.181 225.988L208.63 225.97C208.116 225.97 207.512 225.915 206.801 225.856L206.421 225.823C205.977 225.782 205.494 225.734 204.979 225.675C204.673 225.642 204.354 225.602 204.017 225.558C201.864 225.292 199.143 224.858 195.758 224.18L195.016 224.029L194.138 223.841C192.931 223.584 191.652 223.3 190.281 222.983L189.848 222.88C189.184 222.725 188.498 222.559 187.799 222.39L187.233 222.25C186.478 222.061 185.699 221.863 184.896 221.657L184.296 221.502C183.277 221.237 182.229 220.957 181.146 220.662L180.489 220.482L179.157 220.114L177.85 219.745C176.116 219.248 174.298 218.721 172.415 218.151L171.172 217.782C168.849 217.072 166.399 216.302 163.823 215.469L162.96 215.185C158.062 213.59 152.709 211.763 146.863 209.66L145.865 209.292L145.726 209.244C144.696 208.875 143.648 208.507 142.59 208.102L140.349 207.281L142.163 201.925L143.051 199.306L144.472 195.159L145.247 192.882L147.293 193.191L149.25 193.486L149.775 193.568L152.376 193.935L152.873 194.013L197.176 200.68L199.715 201.048C200.132 201.111 200.558 201.08 200.962 200.956C201.535 200.781 202.042 200.428 202.416 199.946C202.789 199.463 203.012 198.874 203.054 198.257L203.373 193.541L203.437 192.561L204.411 178.197C204.411 178.197 209.849 177.868 215.667 178.06C221.559 178.281 227.882 179.011 229.302 181.162Z" fill="#F7AD83"/>
<path d="M221.395 218.373C219.04 222.397 215.973 225.25 211.956 225.842C211.546 225.903 211.133 225.939 210.72 225.951C210.141 226 209.56 226.012 208.981 225.988L208.432 225.97C207.918 225.97 207.316 225.913 206.607 225.853L206.228 225.819C205.785 225.778 205.303 225.73 204.79 225.67C204.485 225.636 204.167 225.595 203.83 225.55C201.684 225.28 198.97 224.838 195.594 224.148L194.854 223.994L193.99 223.802C192.786 223.54 191.511 223.251 190.144 222.928L189.711 222.824C189.049 222.666 188.365 222.498 187.668 222.325L187.104 222.183C186.351 221.99 185.574 221.789 184.773 221.579L184.175 221.421C183.158 221.151 182.114 220.867 181.033 220.567L180.378 220.383L179.049 220.008L177.746 219.633C176.017 219.127 174.204 218.59 172.327 218.01L171.087 217.635C168.77 216.912 166.328 216.127 163.758 215.28L162.898 214.991C158.013 213.367 152.675 211.507 146.845 209.367L145.85 208.992L145.711 208.943C144.684 208.568 143.639 208.193 142.584 207.781L140.349 206.945L142.158 201.493L143.044 198.826L147.259 195.144L147.454 194.976L148.871 193.75L149.746 193L152.338 193.375L152.834 193.453C152.693 193.829 152.381 194.634 152.041 195.703L151.967 195.947C151.292 197.991 150.859 200.116 150.677 202.272C150.554 204.612 151.031 206.667 152.803 207.353C156.444 208.804 189.152 220.211 208.626 221.02C214.435 221.264 219.061 220.563 221.395 218.373Z" fill="#EC685A"/>
<path d="M215.465 178.053C211.584 179.392 209.771 185.533 208.476 193.416C207.957 196.597 206.373 198.461 204.667 199.55C204.3 199.781 203.919 199.987 203.526 200.166C202.607 200.582 201.635 200.863 200.64 201C201.216 200.825 201.727 200.472 202.104 199.988C202.48 199.505 202.704 198.914 202.746 198.295L203.068 193.571L203.132 192.59L204.112 178.196C204.112 178.196 209.588 177.868 215.447 178.06L215.465 178.053Z" fill="#EC685A"/>
<path d="M180.765 128.77C180.595 129.403 180.379 130.022 180.117 130.619C176.932 138.059 166.423 148.309 166.423 148.309C163.429 160.49 160.145 171.413 156.847 181.03C156.419 182.269 155.998 183.486 155.57 184.684C155.396 185.168 155.216 185.646 155.057 186.126C154.802 186.828 154.554 187.517 154.304 188.204C154.232 188.385 154.169 188.574 154.098 188.752C153.971 189.121 153.84 189.458 153.708 189.805C153.187 191.198 152.669 192.554 152.156 193.873C151.869 194.612 151.579 195.352 151.292 196.092C151.26 196.173 151.228 196.246 151.2 196.324C150.391 198.365 149.588 200.319 148.794 202.185C147.732 204.711 146.67 207.077 145.683 209.289C144.059 212.854 142.524 216.015 141.122 218.762C138.819 223.277 134.155 226.043 129.325 226.79C126.616 227.237 123.844 226.968 121.26 226.01C120.959 225.888 120.659 225.762 120.369 225.618C117.799 224.434 115.777 222.243 114.739 219.517C111.038 209.74 108.901 196.166 107.733 185.941C108.023 185.876 108.296 185.742 108.529 185.549C108.956 185.194 109.436 184.832 109.969 184.462C112.59 182.665 115.491 181.361 118.543 180.609C121.093 179.971 123.705 179.641 126.328 179.629C126.865 179.629 127.414 179.629 127.973 179.629L128.61 179.655C129.074 179.677 129.544 179.707 130.026 179.751L130.563 179.795L131.236 179.862L131.922 179.944L131.894 180.931L131.639 190.368L137.584 178.102L155.046 142.067L154.859 130.194C154.718 126.012 155.528 121.853 157.222 118.062L158.638 114.878L160.711 104.683L160.818 104.709C161.02 104.756 161.215 104.832 161.398 104.935H161.415C164.668 106.809 162.877 116.483 162.562 118.051V118.114C162.537 118.213 162.527 118.269 162.527 118.269L179.628 101C179.653 101.093 179.682 101.189 179.699 101.285C179.716 101.343 179.728 101.403 179.735 101.463C179.752 101.551 179.766 101.64 179.781 101.733C179.835 102.112 179.851 102.496 179.83 102.879C179.83 102.982 179.83 103.09 179.809 103.197C179.812 103.207 179.812 103.217 179.809 103.226C179.809 103.294 179.801 103.361 179.787 103.426C179.787 103.578 179.745 103.733 179.717 103.892C179.653 104.225 179.575 104.561 179.476 104.901C179.445 105.02 179.409 105.135 179.37 105.252C179.331 105.371 179.257 105.6 179.193 105.774C179.161 105.863 179.129 105.948 179.094 106.037C178.914 106.506 178.701 106.98 178.472 107.453C178.368 107.66 178.259 107.871 178.153 108.078C178.047 108.285 177.969 108.418 177.873 108.588C177.672 108.958 177.459 109.301 177.24 109.653C177.148 109.801 177.056 109.949 176.961 110.097C176.865 110.245 176.766 110.4 176.666 110.552L176.267 111.143C175.853 111.731 175.432 112.308 175.018 112.848C174.809 113.118 174.6 113.381 174.399 113.635C173.249 115.067 172.18 116.246 171.518 116.964C171.485 116.995 171.453 117.028 171.423 117.063C171.389 117.094 171.357 117.126 171.327 117.159L171.246 117.248L171.189 117.303L171.104 117.393L171.009 117.489L170.952 117.548L170.818 117.681L171.773 117.244C172.194 117.051 172.663 116.998 173.114 117.093C173.623 117.193 174.085 117.471 174.423 117.88L174.523 117.992C174.879 118.43 175.094 118.977 175.134 119.552C175.175 120.127 175.04 120.701 174.749 121.19C175.019 120.986 175.337 120.861 175.669 120.828C176.002 120.795 176.336 120.854 176.638 121.001L176.773 121.079C176.797 121.091 176.82 121.106 176.84 121.123L176.879 121.149C176.911 121.169 176.942 121.192 176.971 121.216C177.066 121.288 177.154 121.37 177.233 121.46L178.064 122.403C178.382 122.769 178.572 123.238 178.601 123.732C178.631 124.226 178.499 124.715 178.227 125.121L177.845 125.69L177.749 125.834C178.056 125.645 178.406 125.544 178.762 125.542C178.834 125.537 178.908 125.537 178.981 125.542C179.283 125.58 179.574 125.688 179.831 125.857C180.089 126.026 180.307 126.253 180.47 126.522C180.669 126.854 180.797 127.226 180.848 127.613C180.898 128.001 180.87 128.395 180.765 128.77Z" fill="#F7AD83"/>
<path d="M163.26 118.181L163.215 118.255L161.105 121C161.193 120.696 165.303 107.136 162.064 105C165.458 106.884 163.591 116.601 163.26 118.181Z" fill="#EC685A"/>
<path d="M170.795 118.156L167.054 122C167.054 122 166.697 120.699 169.09 118.141C171.425 115.638 180.748 106.525 179.744 102C181.182 107.982 171.087 117.864 170.795 118.156Z" fill="#EC685A"/>
<path d="M174.942 119.911C174.944 120.469 174.821 121.018 174.589 121.49L170.998 126C170.998 126 170.809 124.81 172.073 123C173.293 121.259 174.872 118.319 173.133 117C173.585 117.112 173.996 117.416 174.299 117.862L174.384 117.984C174.747 118.517 174.945 119.203 174.942 119.911Z" fill="#EC685A"/>
<path d="M178.546 125.441L178.189 126.066L174.953 130C174.953 130 174.75 128.811 176.068 126.996C177.323 125.263 178.944 122.335 177.196 121C177.354 121.107 177.499 121.244 177.623 121.406L178.388 122.441C178.685 122.845 178.863 123.361 178.891 123.907C178.92 124.452 178.798 124.993 178.546 125.441Z" fill="#EC685A"/>
<path d="M180.782 129.164C180.613 129.794 180.398 130.41 180.138 131.005C176.968 138.416 166.51 148.624 166.51 148.624C163.53 160.756 160.263 171.636 156.981 181.214C156.555 182.449 156.136 183.66 155.71 184.853C155.537 185.336 155.357 185.815 155.199 186.29C154.945 186.989 154.699 187.675 154.448 188.359L154.248 188.905C154.121 189.273 153.991 189.608 153.861 189.954C153.342 191.341 152.826 192.692 152.315 194.005C152.029 194.742 151.741 195.479 151.456 196.215C151.424 196.296 151.392 196.37 151.364 196.447C150.559 198.48 149.761 200.426 148.969 202.285C147.913 204.8 146.857 207.157 145.874 209.359C144.258 212.91 142.73 216.059 141.335 218.795C139.043 223.292 134.401 226.047 129.595 226.791C126.899 227.236 124.141 226.968 121.57 226.014C123.746 226.652 126.055 226.599 128.204 225.863C131.549 224.758 134.803 222.066 137.43 217.76C139.145 214.95 140.892 211.698 142.628 208.185C143.684 206.027 144.74 203.765 145.796 201.426C146.607 199.629 147.413 197.792 148.206 195.932L148.29 195.736C148.48 195.291 148.67 194.852 148.857 194.403L149.209 193.571C150.075 191.494 150.931 189.398 151.762 187.31C152.386 185.756 152.995 184.208 153.586 182.666C156.199 175.911 158.562 169.37 160.499 163.827C163.734 154.539 165.781 148.05 165.781 148.05C165.781 148.05 165.914 144.99 166.516 143.719C167.119 142.448 176.426 134.648 179.039 131.068C179.049 131.061 179.056 131.051 179.06 131.038C181.645 127.488 178.954 126.041 178.954 126.041L178.983 126C179.283 126.038 179.572 126.145 179.828 126.314C180.085 126.483 180.302 126.709 180.465 126.976C180.659 127.298 180.788 127.659 180.842 128.035C180.897 128.412 180.876 128.796 180.782 129.164Z" fill="#EC685A"/>
<path d="M132.442 180.321L132.411 181.282L132.125 190.475C132.125 190.475 130.185 193.202 128.301 196.166C127.283 197.732 126.356 199.346 125.523 201C126.234 199.323 126.818 197.605 127.273 195.856C128.364 191.685 129.062 186.019 126.837 181.257C126.64 180.828 126.418 180.408 126.17 180C126.773 180 127.388 180 128.015 180L128.729 180.026C129.248 180.047 129.776 180.076 130.316 180.119L130.919 180.162L131.673 180.227L132.442 180.321Z" fill="#EC685A"/>
<path opacity="0.41" d="M161.026 106.912C160.768 109.034 159.729 115.326 159.729 115.326C159.729 115.326 156.103 122.464 155.908 130.088C155.713 137.712 156.751 142.1 156.751 142.1C156.751 142.1 146.118 163.874 138.575 179.167C135.228 185.95 132.489 191.445 131.553 193.191C130.763 194.667 129.972 195.992 129.238 197.114C128.141 198.854 126.898 200.489 125.523 202L127.356 196.04C126.949 197.831 126.427 199.591 125.793 201.31C126.537 199.615 127.365 197.962 128.274 196.357C129.958 193.32 131.691 190.526 131.691 190.526L137.646 178.285L155.139 142.321L154.944 130.468C154.802 126.294 155.614 122.144 157.311 118.359L158.729 115.182L160.806 105.008C160.824 104.999 160.844 104.998 160.864 105.002C160.883 105.007 160.9 105.018 160.913 105.034C161.051 105.129 161.2 105.499 161.026 106.912Z" fill="white"/>
<path opacity="0.41" d="M179.884 101L162.966 118.389L161.105 120.994C161.105 120.994 162.204 121.239 164.494 118.638C166.784 116.037 178.916 103.103 179.884 101Z" fill="white"/>
<path d="M334.824 253H7.15227C5.38542 253 3.95349 254.567 3.95349 256.5C3.95349 258.433 5.38542 260 7.15227 260H334.824C336.591 260 338.023 258.433 338.023 256.5C338.023 254.567 336.591 253 334.824 253Z" fill="#04050F"/>
</g>
<defs>
<clipPath id="clip0_202_2">
<rect width="340" height="260" fill="white"/>
</clipPath>
</defs>
</svg>
